<svg width="58" height="24" viewBox="0 0 58 24" fill="none" xmlns="http://www.w3.org/2000/svg">
<g clip-path="url(#clip0_212_2)">
<path d="M13.7673 0C11.5023 0 9.33004 0.96804 7.72843 2.69117L2.50141 8.31472C0.899781 10.0378 0 12.3749 0 14.8118C0 19.8863 3.82364 24 8.54035 24C10.8054 24 12.9776 23.0319 14.5793 21.3088L18.1948 17.419C18.1949 17.419 18.1948 17.4189 18.1948 17.419L28.7293 6.08528C29.4943 5.26233 30.5317 4.8 31.6135 4.8C33.4246 4.8 34.96 6.06993 35.4924 7.82726L38.817 4.25037C37.3003 1.69467 34.6409 0 31.6135 0C29.3484 0 27.1762 0.96804 25.5746 2.69117L11.4245 17.9147C10.6596 18.7377 9.62213 19.2 8.54035 19.2C6.28768 19.2 4.46154 17.2354 4.46154 14.8118C4.46154 13.6479 4.89127 12.5318 5.65619 11.7088L10.8832 6.08528C11.6481 5.26233 12.6856 4.8 13.7673 4.8C15.5785 4.8 17.1139 6.06998 17.6462 7.82737L20.9709 4.25046C19.4542 1.69472 16.7948 0 13.7673 0Z" fill="#FFF8F0"/>
<path d="M29.2707 17.9147C28.5058 18.7377 27.4684 19.2 26.3866 19.2C24.5757 19.2 23.0404 17.9304 22.5079 16.1734L19.1833 19.7502C20.7001 22.3055 23.3594 24 26.3866 24C28.6516 24 30.8239 23.0319 32.4255 21.3088L46.5756 6.08528C47.3405 5.26233 48.3779 4.8 49.4597 4.8C51.7124 4.8 53.5385 6.76467 53.5385 9.18824C53.5385 10.3521 53.1088 11.4682 52.3439 12.2912L47.1169 17.9147C46.352 18.7377 45.3145 19.2 44.2327 19.2C42.4217 19.2 40.8864 17.9302 40.3539 16.173L37.0294 19.7498C38.5461 22.3054 41.2054 24 44.2327 24C46.4978 24 48.67 23.0319 50.2716 21.3088L55.4986 15.6853C57.1003 13.9622 58.0001 11.6251 58.0001 9.18824C58.0001 4.11371 54.1765 0 49.4597 0C47.1947 0 45.0224 0.96804 43.4208 2.69117L29.2707 17.9147Z" fill="#FFF8F0"/>
</g>
<defs>
<clipPath id="clip0_212_2">
<rect width="58" height="24" fill="white"/>
</clipPath>
</defs>
</svg>
