<svg width="309" height="28" viewBox="0 0 309 28" fill="none" xmlns="http://www.w3.org/2000/svg">
<path d="M70.9261 0.818181L76.7812 19.9943H76.9986L82.8537 0.818181H89.9361L81.1023 27H72.6776L63.8438 0.818181H70.9261ZM99.0831 0.818181V27H92.755V0.818181H99.0831ZM126.821 10.304H120.429C120.344 9.64773 120.169 9.0554 119.905 8.52699C119.641 7.99858 119.292 7.54687 118.857 7.17188C118.422 6.79688 117.907 6.51136 117.31 6.31534C116.722 6.11079 116.07 6.00852 115.354 6.00852C114.084 6.00852 112.989 6.3196 112.069 6.94176C111.157 7.56392 110.453 8.46307 109.959 9.6392C109.473 10.8153 109.23 12.2386 109.23 13.9091C109.23 15.6477 109.478 17.1051 109.972 18.2812C110.475 19.4489 111.178 20.331 112.081 20.9276C112.993 21.5156 114.071 21.8097 115.316 21.8097C116.015 21.8097 116.65 21.7202 117.221 21.5412C117.8 21.3622 118.307 21.1023 118.742 20.7614C119.185 20.4119 119.547 19.9901 119.828 19.4957C120.118 18.9929 120.319 18.4261 120.429 17.7955L126.821 17.8338C126.711 18.9929 126.374 20.1349 125.811 21.2599C125.257 22.3849 124.495 23.4119 123.523 24.3409C122.551 25.2614 121.367 25.9943 119.969 26.5398C118.58 27.0852 116.986 27.358 115.188 27.358C112.819 27.358 110.696 26.8381 108.821 25.7983C106.955 24.75 105.48 23.2244 104.398 21.2216C103.316 19.2187 102.775 16.7812 102.775 13.9091C102.775 11.0284 103.324 8.58665 104.424 6.58381C105.523 4.58097 107.01 3.05966 108.885 2.01989C110.76 0.980113 112.861 0.460226 115.188 0.460226C116.773 0.460226 118.239 0.681818 119.586 1.125C120.932 1.55966 122.117 2.19886 123.14 3.04261C124.162 3.87784 124.993 4.90483 125.632 6.12358C126.272 7.34233 126.668 8.7358 126.821 10.304ZM129.586 5.95739V0.818181H151.715V5.95739H143.776V27H137.538V5.95739H129.586ZM178.322 13.9091C178.322 16.7898 177.768 19.2315 176.66 21.2344C175.552 23.2372 174.052 24.7585 172.16 25.7983C170.277 26.8381 168.163 27.358 165.819 27.358C163.467 27.358 161.349 26.8338 159.466 25.7855C157.582 24.7372 156.086 23.2159 154.978 21.2216C153.879 19.2187 153.329 16.7812 153.329 13.9091C153.329 11.0284 153.879 8.58665 154.978 6.58381C156.086 4.58097 157.582 3.05966 159.466 2.01989C161.349 0.980113 163.467 0.460226 165.819 0.460226C168.163 0.460226 170.277 0.980113 172.16 2.01989C174.052 3.05966 175.552 4.58097 176.66 6.58381C177.768 8.58665 178.322 11.0284 178.322 13.9091ZM171.853 13.9091C171.853 12.2045 171.61 10.7642 171.125 9.58807C170.647 8.41193 169.957 7.52131 169.054 6.91619C168.159 6.31108 167.081 6.00852 165.819 6.00852C164.566 6.00852 163.488 6.31108 162.585 6.91619C161.681 7.52131 160.987 8.41193 160.501 9.58807C160.024 10.7642 159.785 12.2045 159.785 13.9091C159.785 15.6136 160.024 17.054 160.501 18.2301C160.987 19.4062 161.681 20.2969 162.585 20.902C163.488 21.5071 164.566 21.8097 165.819 21.8097C167.081 21.8097 168.159 21.5071 169.054 20.902C169.957 20.2969 170.647 19.4062 171.125 18.2301C171.61 17.054 171.853 15.6136 171.853 13.9091ZM182.017 27V0.818181H192.832C194.792 0.818181 196.484 1.17187 197.907 1.87926C199.339 2.57812 200.443 3.58381 201.218 4.89631C201.994 6.20028 202.382 7.74716 202.382 9.53693C202.382 11.3523 201.985 12.8949 201.193 14.1648C200.4 15.4261 199.275 16.3892 197.818 17.054C196.36 17.7102 194.635 18.0384 192.64 18.0384H185.801V13.0526H191.464C192.419 13.0526 193.216 12.929 193.855 12.6818C194.502 12.4261 194.993 12.0426 195.325 11.5312C195.657 11.0114 195.824 10.3466 195.824 9.53693C195.824 8.72727 195.657 8.05824 195.325 7.52983C194.993 6.9929 194.502 6.59233 193.855 6.32812C193.207 6.0554 192.41 5.91903 191.464 5.91903H188.345V27H182.017ZM196.757 15.0341L203.277 27H196.373L189.981 15.0341H196.757Z" fill="#FFF8F0"/>
<mask id="path-2-outside-1_115_9" maskUnits="userSpaceOnUse" x="206" y="-1" width="66" height="29" fill="black">
<rect fill="white" x="206" y="-1" width="66" height="29"/>
<path d="M208.023 25V1.72727H217.205C218.962 1.72727 220.462 2.04167 221.705 2.67045C222.955 3.29167 223.905 4.17424 224.557 5.31818C225.216 6.45454 225.545 7.79167 225.545 9.32955C225.545 10.875 225.212 12.2045 224.545 13.3182C223.879 14.4242 222.913 15.2727 221.648 15.8636C220.39 16.4545 218.867 16.75 217.08 16.75H210.932V12.7955H216.284C217.223 12.7955 218.004 12.6667 218.625 12.4091C219.246 12.1515 219.708 11.7652 220.011 11.25C220.322 10.7348 220.477 10.0947 220.477 9.32955C220.477 8.55682 220.322 7.9053 220.011 7.375C219.708 6.8447 219.242 6.44318 218.614 6.17045C217.992 5.89015 217.208 5.75 216.261 5.75H212.943V25H208.023ZM220.591 14.4091L226.375 25H220.943L215.284 14.4091H220.591ZM250.409 13.3636C250.409 15.9015 249.928 18.0606 248.966 19.8409C248.011 21.6212 246.708 22.9811 245.057 23.9205C243.413 24.8523 241.564 25.3182 239.511 25.3182C237.443 25.3182 235.587 24.8485 233.943 23.9091C232.299 22.9697 231 21.6098 230.045 19.8295C229.091 18.0492 228.614 15.8939 228.614 13.3636C228.614 10.8258 229.091 8.66667 230.045 6.88636C231 5.10606 232.299 3.75 233.943 2.81818C235.587 1.87879 237.443 1.40909 239.511 1.40909C241.564 1.40909 243.413 1.87879 245.057 2.81818C246.708 3.75 248.011 5.10606 248.966 6.88636C249.928 8.66667 250.409 10.8258 250.409 13.3636ZM245.42 13.3636C245.42 11.7197 245.174 10.3333 244.682 9.20455C244.197 8.07576 243.511 7.2197 242.625 6.63636C241.739 6.05303 240.701 5.76136 239.511 5.76136C238.322 5.76136 237.284 6.05303 236.398 6.63636C235.511 7.2197 234.822 8.07576 234.33 9.20455C233.845 10.3333 233.602 11.7197 233.602 13.3636C233.602 15.0076 233.845 16.3939 234.33 17.5227C234.822 18.6515 235.511 19.5076 236.398 20.0909C237.284 20.6742 238.322 20.9659 239.511 20.9659C240.701 20.9659 241.739 20.6742 242.625 20.0909C243.511 19.5076 244.197 18.6515 244.682 17.5227C245.174 16.3939 245.42 15.0076 245.42 13.3636ZM254.054 25V1.72727H269.736V5.78409H258.974V11.3295H268.929V15.3864H258.974V20.9432H269.781V25H254.054Z"/>
</mask>
<path d="M208.023 25H206.023V27H208.023V25ZM208.023 1.72727V-0.272728H206.023V1.72727H208.023ZM221.705 2.67045L220.801 4.45493L220.808 4.45823L220.814 4.46147L221.705 2.67045ZM224.557 5.31818L222.819 6.30798L222.823 6.31481L222.827 6.32162L224.557 5.31818ZM224.545 13.3182L226.258 14.3506L226.261 14.3455L224.545 13.3182ZM221.648 15.8636L220.801 14.0515L220.797 14.0535L221.648 15.8636ZM210.932 16.75H208.932V18.75H210.932V16.75ZM210.932 12.7955V10.7955H208.932V12.7955H210.932ZM218.625 12.4091L219.391 14.2566H219.391L218.625 12.4091ZM220.011 11.25L218.299 10.2173L218.293 10.2266L218.287 10.236L220.011 11.25ZM220.011 7.375L218.275 8.36728L218.28 8.37657L218.286 8.38581L220.011 7.375ZM218.614 6.17045L217.791 7.99346L217.804 7.99948L217.818 8.0053L218.614 6.17045ZM212.943 5.75V3.75H210.943V5.75H212.943ZM212.943 25V27H214.943V25H212.943ZM220.591 14.4091L222.346 13.4505L221.777 12.4091H220.591V14.4091ZM226.375 25V27H229.746L228.13 24.0414L226.375 25ZM220.943 25L219.179 25.9426L219.744 27H220.943V25ZM215.284 14.4091V12.4091H211.948L213.52 15.3516L215.284 14.4091ZM210.023 25V1.72727H206.023V25H210.023ZM208.023 3.72727H217.205V-0.272728H208.023V3.72727ZM217.205 3.72727C218.729 3.72727 219.903 4.00008 220.801 4.45493L222.608 0.885973C221.022 0.0832505 219.196 -0.272728 217.205 -0.272728V3.72727ZM220.814 4.46147C221.731 4.91703 222.376 5.53073 222.819 6.30798L226.295 4.32838C225.434 2.81776 224.178 1.66631 222.595 0.879434L220.814 4.46147ZM222.827 6.32162C223.281 7.1046 223.545 8.08339 223.545 9.32955H227.545C227.545 7.49994 227.151 5.80449 226.287 4.31474L222.827 6.32162ZM223.545 9.32955C223.545 10.5826 223.278 11.5423 222.829 12.2909L226.261 14.3455C227.147 12.8668 227.545 11.1673 227.545 9.32955H223.545ZM222.833 12.2857C222.388 13.0238 221.737 13.6144 220.801 14.0515L222.494 17.6757C224.088 16.931 225.37 15.8247 226.258 14.3506L222.833 12.2857ZM220.797 14.0535C219.871 14.4889 218.655 14.75 217.08 14.75V18.75C219.08 18.75 220.91 18.4202 222.498 17.6738L220.797 14.0535ZM217.08 14.75H210.932V18.75H217.08V14.75ZM212.932 16.75V12.7955H208.932V16.75H212.932ZM210.932 14.7955H216.284V10.7955H210.932V14.7955ZM216.284 14.7955C217.389 14.7955 218.451 14.6463 219.391 14.2566L217.859 10.5616C217.557 10.687 217.058 10.7955 216.284 10.7955V14.7955ZM219.391 14.2566C220.361 13.8545 221.185 13.2 221.735 12.264L218.287 10.236C218.232 10.3303 218.132 10.4486 217.859 10.5616L219.391 14.2566ZM221.724 12.2827C222.267 11.3817 222.477 10.361 222.477 9.32955H218.477C218.477 9.82836 218.377 10.088 218.299 10.2173L221.724 12.2827ZM222.477 9.32955C222.477 8.29179 222.268 7.2706 221.737 6.36419L218.286 8.38581C218.376 8.54001 218.477 8.82184 218.477 9.32955H222.477ZM221.748 6.38272C221.205 5.43197 220.384 4.7582 219.409 4.33561L217.818 8.0053C218.101 8.12816 218.212 8.25743 218.275 8.36728L221.748 6.38272ZM219.436 4.34744C218.476 3.91436 217.389 3.75 216.261 3.75V7.75C217.028 7.75 217.508 7.86594 217.791 7.99346L219.436 4.34744ZM216.261 3.75H212.943V7.75H216.261V3.75ZM210.943 5.75V25H214.943V5.75H210.943ZM212.943 23H208.023V27H212.943V23ZM218.836 15.3677L224.62 25.9586L228.13 24.0414L222.346 13.4505L218.836 15.3677ZM226.375 23H220.943V27H226.375V23ZM222.707 24.0574L217.048 13.4665L213.52 15.3516L219.179 25.9426L222.707 24.0574ZM215.284 16.4091H220.591V12.4091H215.284V16.4091ZM248.966 19.8409L247.206 18.89L247.203 18.8958L248.966 19.8409ZM245.057 23.9205L246.043 25.6604L246.046 25.6589L245.057 23.9205ZM233.943 23.9091L234.935 22.1726L233.943 23.9091ZM230.045 19.8295L228.283 20.7746L230.045 19.8295ZM230.045 6.88636L231.808 7.83143V7.83143L230.045 6.88636ZM233.943 2.81818L234.929 4.55812L234.935 4.55467L233.943 2.81818ZM245.057 2.81818L244.065 4.55469L244.074 4.56005L245.057 2.81818ZM248.966 6.88636L247.203 7.83144L247.206 7.83724L248.966 6.88636ZM244.682 9.20455L242.844 9.99388L242.849 10.0042L244.682 9.20455ZM242.625 6.63636L241.526 8.30703V8.30703L242.625 6.63636ZM236.398 6.63636L237.497 8.30703V8.30703L236.398 6.63636ZM234.33 9.20455L232.496 8.40483L232.492 8.41522L234.33 9.20455ZM234.33 17.5227L232.492 18.3121L232.496 18.3224L234.33 17.5227ZM236.398 20.0909L237.497 18.4202V18.4202L236.398 20.0909ZM242.625 20.0909L241.526 18.4202V18.4202L242.625 20.0909ZM244.682 17.5227L242.849 16.723L242.844 16.7334L244.682 17.5227ZM248.409 13.3636C248.409 15.6523 247.976 17.4669 247.206 18.89L250.725 20.7918C251.881 18.6543 252.409 16.1507 252.409 13.3636H248.409ZM247.203 18.8958C246.415 20.366 245.371 21.4408 244.068 22.182L246.046 25.6589C248.046 24.5213 249.608 22.8764 250.729 20.786L247.203 18.8958ZM244.071 22.1805C242.753 22.9273 241.249 23.3182 239.511 23.3182V27.3182C241.879 27.3182 244.073 26.7772 246.043 25.6604L244.071 22.1805ZM239.511 23.3182C237.758 23.3182 236.25 22.9236 234.935 22.1726L232.951 25.6456C234.924 26.7733 237.128 27.3182 239.511 27.3182V23.3182ZM234.935 22.1726C233.64 21.4321 232.598 20.357 231.808 18.8845L228.283 20.7746C229.402 22.8627 230.959 24.5073 232.951 25.6456L234.935 22.1726ZM231.808 18.8845C231.044 17.4592 230.614 15.6459 230.614 13.3636H226.614C226.614 16.142 227.138 18.6393 228.283 20.7746L231.808 18.8845ZM230.614 13.3636C230.614 11.0727 231.044 9.25591 231.808 7.83143L228.283 5.9413C227.138 8.07743 226.614 10.5789 226.614 13.3636H230.614ZM231.808 7.83143C232.597 6.36011 233.637 5.29065 234.929 4.55811L232.957 1.07825C230.961 2.20935 229.403 3.85201 228.283 5.9413L231.808 7.83143ZM234.935 4.55467C236.25 3.80364 237.758 3.40909 239.511 3.40909V-0.59091C237.128 -0.59091 234.924 -0.0460649 232.951 1.0817L234.935 4.55467ZM239.511 3.40909C241.247 3.40909 242.748 3.80236 244.065 4.55467L246.049 1.0817C244.078 -0.0447874 241.882 -0.59091 239.511 -0.59091V3.40909ZM244.074 4.56005C245.373 5.29324 246.416 6.36247 247.203 7.83143L250.729 5.9413C249.607 3.84965 248.043 2.20676 246.04 1.07631L244.074 4.56005ZM247.206 7.83724C247.976 9.26038 248.409 11.075 248.409 13.3636H252.409C252.409 10.5766 251.881 8.07296 250.725 5.93549L247.206 7.83724ZM247.42 13.3636C247.42 11.5318 247.148 9.8552 246.515 8.40484L242.849 10.0042C243.201 10.8115 243.42 11.9076 243.42 13.3636H247.42ZM246.519 8.41522C245.905 6.98491 244.987 5.79659 243.724 4.9657L241.526 8.30703C242.036 8.64281 242.489 9.16661 242.844 9.99387L246.519 8.41522ZM243.724 4.9657C242.473 4.14214 241.043 3.76136 239.511 3.76136V7.76136C240.359 7.76136 241.004 7.96392 241.526 8.30703L243.724 4.9657ZM239.511 3.76136C237.98 3.76136 236.55 4.14214 235.298 4.9657L237.497 8.30703C238.019 7.96392 238.664 7.76136 239.511 7.76136V3.76136ZM235.298 4.9657C234.039 5.79463 233.118 6.97914 232.496 8.40484L236.163 10.0042C236.526 9.17237 236.984 8.64477 237.497 8.30703L235.298 4.9657ZM232.492 8.41522C231.87 9.86237 231.602 11.5351 231.602 13.3636H235.602C235.602 11.9043 235.819 10.8043 236.167 9.99387L232.492 8.41522ZM231.602 13.3636C231.602 15.1922 231.87 16.8649 232.492 18.3121L236.167 16.7334C235.819 15.923 235.602 14.823 235.602 13.3636H231.602ZM232.496 18.3224C233.118 19.7481 234.039 20.9326 235.298 21.7616L237.497 18.4202C236.984 18.0825 236.526 17.5549 236.163 16.723L232.496 18.3224ZM235.298 21.7616C236.55 22.5851 237.98 22.9659 239.511 22.9659V18.9659C238.664 18.9659 238.019 18.7634 237.497 18.4202L235.298 21.7616ZM239.511 22.9659C241.043 22.9659 242.473 22.5851 243.724 21.7616L241.526 18.4202C241.004 18.7634 240.359 18.9659 239.511 18.9659V22.9659ZM243.724 21.7616C244.987 20.9307 245.905 19.7424 246.519 18.3121L242.844 16.7334C242.489 17.5607 242.036 18.0845 241.526 18.4202L243.724 21.7616ZM246.515 18.3224C247.148 16.8721 247.42 15.1955 247.42 13.3636H243.42C243.42 14.8197 243.201 15.9158 242.849 16.723L246.515 18.3224ZM254.054 25H252.054V27H254.054V25ZM254.054 1.72727V-0.272728H252.054V1.72727H254.054ZM269.736 1.72727H271.736V-0.272728H269.736V1.72727ZM269.736 5.78409V7.78409H271.736V5.78409H269.736ZM258.974 5.78409V3.78409H256.974V5.78409H258.974ZM258.974 11.3295H256.974V13.3295H258.974V11.3295ZM268.929 11.3295H270.929V9.32955H268.929V11.3295ZM268.929 15.3864V17.3864H270.929V15.3864H268.929ZM258.974 15.3864V13.3864H256.974V15.3864H258.974ZM258.974 20.9432H256.974V22.9432H258.974V20.9432ZM269.781 20.9432H271.781V18.9432H269.781V20.9432ZM269.781 25V27H271.781V25H269.781ZM256.054 25V1.72727H252.054V25H256.054ZM254.054 3.72727H269.736V-0.272728H254.054V3.72727ZM267.736 1.72727V5.78409H271.736V1.72727H267.736ZM269.736 3.78409H258.974V7.78409H269.736V3.78409ZM256.974 5.78409V11.3295H260.974V5.78409H256.974ZM258.974 13.3295H268.929V9.32955H258.974V13.3295ZM266.929 11.3295V15.3864H270.929V11.3295H266.929ZM268.929 13.3864H258.974V17.3864H268.929V13.3864ZM256.974 15.3864V20.9432H260.974V15.3864H256.974ZM258.974 22.9432H269.781V18.9432H258.974V22.9432ZM267.781 20.9432V25H271.781V20.9432H267.781ZM269.781 23H254.054V27H269.781V23Z" fill="#FFF8F0" mask="url(#path-2-outside-1_115_9)"/>
<rect x="158" y="20.5161" width="21.6511" height="4.5812" transform="rotate(-54.0001 158 20.5161)" fill="#FFF8F0"/>
<g clip-path="url(#clip0_115_9)">
<path d="M14.2421 2C11.8989 2 9.65177 3.00838 7.99492 4.8033L2.58766 10.6612C0.930808 12.4561 0 14.8905 0 17.4289C0 22.7149 3.95549 27 8.83485 27C11.178 27 13.4252 25.9916 15.082 24.1967L18.8222 20.1448C18.8222 20.1447 18.8223 20.1448 18.8222 20.1448L29.72 8.33883C30.5113 7.48159 31.5845 7 32.7036 7C34.5772 7 36.1655 8.32284 36.7162 10.1534L40.1555 6.42747C38.5865 3.76528 35.8354 2 32.7036 2C30.3605 2 28.1133 3.00838 26.4565 4.8033L11.8185 20.6612C11.0272 21.5184 9.95392 22 8.83485 22C6.50449 22 4.61538 19.9535 4.61538 17.4289C4.61538 16.2166 5.05993 15.0539 5.85123 14.1967L11.2585 8.33883C12.0498 7.48159 13.123 7 14.2421 7C16.1157 7 17.704 8.3229 18.2547 10.1535L21.6941 6.42756C20.1251 3.76533 17.3739 2 14.2421 2Z" fill="#FFF8F0"/>
<path d="M30.28 20.6612C29.4887 21.5184 28.4155 22 27.2964 22C25.4231 22 23.8349 20.6775 23.284 18.8472L19.8448 22.5731C21.4139 25.2349 24.1649 27 27.2964 27C29.6396 27 31.8867 25.9916 33.5436 24.1967L48.1816 8.33883C48.9729 7.48159 50.0461 7 51.1652 7C53.4956 7 55.3846 9.04653 55.3846 11.5711C55.3846 12.7834 54.9401 13.9461 54.1488 14.8033L48.7416 20.6612C47.9502 21.5184 46.877 22 45.7579 22C43.8845 22 42.2962 20.6772 41.7454 18.8468L38.3062 22.5728C39.8752 25.2348 42.6262 27 45.7579 27C48.1011 27 50.3482 25.9916 52.0051 24.1967L57.4123 18.3388C59.0692 16.5439 60 14.1095 60 11.5711C60 6.28512 56.0446 2 51.1652 2C48.822 2 46.5749 3.00838 44.918 4.8033L30.28 20.6612Z" fill="#FFF8F0"/>
</g>
<defs>
<clipPath id="clip0_115_9">
<rect width="60" height="25" fill="white" transform="translate(0 2)"/>
</clipPath>
</defs>
</svg>
