<svg width="49" height="19" viewBox="0 0 49 19" fill="none" xmlns="http://www.w3.org/2000/svg">
<g clip-path="url(#clip0_62_61)">
<path d="M11.4356 0.190491C9.55414 0.190491 7.7498 0.94149 6.41945 2.27828L2.07774 6.641C0.747384 7.97778 0 9.79084 0 11.6814C0 15.6182 3.17603 18.8095 7.09386 18.8095C8.97528 18.8095 10.7796 18.0585 12.11 16.7217L15.1131 13.704C15.1131 13.7039 15.1132 13.7041 15.1131 13.704L23.8634 4.91141C24.4988 4.27297 25.3605 3.9143 26.2591 3.9143C27.7634 3.9143 29.0388 4.8995 29.481 6.26283L32.2425 3.4879C30.9827 1.50521 28.7737 0.190491 26.2591 0.190491C24.3777 0.190491 22.5733 0.94149 21.243 2.27828L9.48953 14.0886C8.85416 14.7271 7.99242 15.0857 7.09386 15.0857C5.22273 15.0857 3.70588 13.5616 3.70588 11.6814C3.70588 10.7785 4.06283 9.91255 4.69819 9.2741L9.03988 4.91141C9.67526 4.27297 10.537 3.9143 11.4356 3.9143C12.94 3.9143 14.2153 4.89955 14.6574 6.26291L17.4191 3.48797C16.1593 1.50524 13.9502 0.190491 11.4356 0.190491Z" fill="#ffffff"/>
<path d="M24.3131 14.0886C23.6777 14.7271 22.816 15.0857 21.9174 15.0857C20.4133 15.0857 19.138 14.1008 18.6957 12.7377L15.9342 15.5125C17.1941 17.495 19.403 18.8095 21.9174 18.8095C23.7988 18.8095 25.6032 18.0585 26.9335 16.7217L38.687 4.91141C39.3223 4.27297 40.1841 3.9143 41.0826 3.9143C42.9538 3.9143 44.4706 5.43848 44.4706 7.31867C44.4706 8.22157 44.1137 9.08748 43.4783 9.72593L39.1366 14.0886C38.5012 14.7271 37.6395 15.0857 36.7409 15.0857C35.2367 15.0857 33.9613 14.1006 33.5191 12.7374L30.7576 15.5123C32.0174 17.4949 34.2264 18.8095 36.7409 18.8095C38.6224 18.8095 40.4267 18.0585 41.757 16.7217L46.0987 12.359C47.4291 11.0222 48.1765 9.20918 48.1765 7.31867C48.1765 3.38188 45.0005 0.190491 41.0826 0.190491C39.2012 0.190491 37.3969 0.94149 36.0665 2.27828L24.3131 14.0886Z" fill="#ffffff"/>
</g>
<defs>
<clipPath id="clip0_62_61">
<rect width="48.1765" height="18.619" fill="white" transform="translate(0 0.190491)"/>
</clipPath>
</defs>
</svg>
